<svg xmlns="http://www.w3.org/2000/svg" width="39.841" height="40" viewBox="0 0 39.841 40">
  <g id="Group_1" data-name="Group 1" transform="translate(-429 -521)">
    <path id="Path_5" data-name="Path 5" d="M69.506,69.769a.657.657,0,0,1,.235-.729L74.8,65.307a2.29,2.29,0,0,0-1.334-4.132l-6.272-.029a.651.651,0,0,1-.616-.45L64.611,54.7a2.243,2.243,0,0,0-2.159-1.571h0a2.243,2.243,0,0,0-2.159,1.57l-.886,2.7a.811.811,0,1,0,1.54.511l.886-2.7a.65.65,0,0,1,1.238,0l1.966,5.993a2.272,2.272,0,0,0,2.148,1.57l6.272.029a.656.656,0,0,1,.382,1.185l-5.057,3.733a2.293,2.293,0,0,0-.82,2.541l1.911,6.013a.658.658,0,0,1-.238.73.648.648,0,0,1-.764,0L63.78,73.324a2.26,2.26,0,0,0-2.656,0l-5.092,3.687a.648.648,0,0,1-.764,0,.658.658,0,0,1-.238-.73l1.911-6.014a2.293,2.293,0,0,0-.82-2.541l-5.057-3.733a.656.656,0,0,1,.383-1.185l6.272-.029a.816.816,0,0,0,0-1.632h0l-6.272.029a2.29,2.29,0,0,0-1.334,4.132l5.057,3.733a.658.658,0,0,1,.235.729l-1.91,6.014a2.263,2.263,0,0,0,.829,2.547,2.23,2.23,0,0,0,2.664.006l5.092-3.687a.648.648,0,0,1,.761,0l5.091,3.687a2.262,2.262,0,0,0,2.664-.006,2.3,2.3,0,0,0,.829-2.547Z" transform="translate(386.469 475.047)" fill="#fff"/>
    <path id="Path_6" data-name="Path 6" d="M19.92,0a20,20,0,0,0,0,40,.814.814,0,0,0,0-1.628A18.318,18.318,0,1,1,29.754,35.5a.813.813,0,0,0,.873,1.372A20.017,20.017,0,0,0,19.92,0Z" transform="translate(429 521)" fill="#fff"/>
  </g>
</svg>
