<svg xmlns="http://www.w3.org/2000/svg" width="34.445" height="40" viewBox="0 0 34.445 40">
  <path id="home" d="M51.479,19.84a.972.972,0,0,0-.976.969V38.065H40.032V27.233a.972.972,0,0,0-.976-.969H31.411a.972.972,0,0,0-.976.969v8.589a.976.976,0,0,0,1.952,0V28.2H38.08v9.863H19.962V14.357L35.232,2.211,50.869,14.648a.981.981,0,0,0,1.372-.15.964.964,0,0,0-.152-1.361L35.843.214a.982.982,0,0,0-1.22,0L18.376,13.136a.966.966,0,0,0-.366.756V39.033a.972.972,0,0,0,.976.969H51.479a.972.972,0,0,0,.976-.969V20.81a.972.972,0,0,0-.976-.969Z" transform="translate(-18.01 -0.002)" fill="#fff"/>
</svg>
