<svg xmlns="http://www.w3.org/2000/svg" width="45.096" height="32.708" viewBox="0 0 45.096 32.708">
  <g id="upload-arrow" transform="translate(45.096 -40.495) rotate(90)">
    <path id="Path_5" data-name="Path 5" d="M72.285,51.991H60.042a.918.918,0,1,0,0,1.835H71.368V87.3H42.33V53.826H53.656a.918.918,0,0,0,0-1.835H41.413a.918.918,0,0,0-.918.918V88.217a.918.918,0,0,0,.918.918H72.285a.918.918,0,0,0,.918-.918V52.909A.918.918,0,0,0,72.285,51.991Z" transform="translate(0 -44.039)"/>
    <path id="Path_6" data-name="Path 6" d="M113.674,6.05l2.917-2.917V30.471a.918.918,0,1,0,1.835,0V3.133l2.928,2.928a.918.918,0,0,0,1.3-1.3L118.158.269a.918.918,0,0,0-1.3,0l-4.483,4.483a.918.918,0,0,0,1.3,1.3Z" transform="translate(-60.66 0)"/>
  </g>
</svg>
