<svg xmlns="http://www.w3.org/2000/svg" width="40.107" height="40" viewBox="0 0 40.107 40">
  <path id="profile" d="M34.217,5.905A20.043,20.043,0,0,0,1.174,26.845a.816.816,0,0,0,1.536-.552,18.407,18.407,0,1,1,30.68,6.415c-.039.041-.078.083-.117.124-.069.073-.138.147-.209.219a18.472,18.472,0,0,1-26.052,0c-.038-.038-.075-.077-.112-.116,0-.075,0-.149,0-.222q0-.246.009-.49c0-.054.006-.109.009-.163.005-.109.01-.216.018-.324,0-.064.012-.128.017-.192.009-.1.017-.194.027-.291.007-.068.017-.136.026-.2.012-.092.023-.184.036-.275.01-.069.023-.138.034-.207.015-.089.029-.178.045-.266.014-.07.027-.139.042-.209.018-.087.035-.174.054-.26.016-.07.033-.139.05-.209.02-.085.041-.17.063-.254s.038-.139.058-.208.046-.166.071-.249.043-.138.065-.207.052-.163.08-.244.048-.136.072-.2.058-.161.089-.241.053-.134.08-.2.064-.158.1-.236.057-.132.087-.2.069-.155.105-.231.062-.13.094-.195.075-.152.114-.227.066-.127.1-.19.081-.15.122-.224.07-.125.106-.186.086-.147.13-.219l.113-.182q.068-.108.138-.214l.119-.178c.048-.071.1-.14.147-.21s.082-.116.125-.173.1-.137.155-.205.086-.112.13-.168.108-.134.163-.2l.135-.163c.056-.066.114-.131.172-.2s.093-.1.14-.156.119-.127.18-.19.1-.1.145-.151.125-.124.188-.186.1-.1.15-.144.132-.121.2-.181c.051-.046.1-.092.152-.137.068-.06.139-.118.208-.177.051-.043.1-.087.154-.129.072-.059.146-.116.22-.174.051-.04.1-.081.154-.12.078-.059.157-.116.236-.173.05-.036.1-.073.15-.109.087-.061.177-.12.266-.18l.131-.088c.116-.075.234-.148.354-.22l.054-.034q.206-.123.418-.24c.048-.027.1-.051.147-.077.094-.05.187-.1.283-.148.061-.031.124-.059.185-.089.078-.038.155-.076.234-.112a7.956,7.956,0,0,0,11,0,13.276,13.276,0,0,1,6.535,6.636.816.816,0,0,0,1.494-.656,14.7,14.7,0,0,0-6.94-7.261A7.945,7.945,0,0,0,20.038,7.1a.814.814,0,1,0,0,1.629,6.316,6.316,0,0,1,4.7,10.554h0a6.329,6.329,0,1,1-9.163-8.726A.815.815,0,1,0,14.431,9.4a7.925,7.925,0,0,0-.985,10.116l-.024.012c-.064.032-.126.065-.189.1-.1.05-.194.1-.289.152-.068.037-.133.075-.2.113-.089.05-.178.1-.266.152l-.2.124c-.084.052-.169.1-.252.157-.068.044-.135.088-.2.133s-.161.107-.241.163-.133.094-.2.141-.155.112-.231.169-.13.1-.195.149-.149.117-.223.176l-.19.156q-.109.09-.215.183l-.184.162q-.105.094-.208.19c-.059.055-.118.111-.177.167s-.135.132-.2.2-.114.114-.169.171-.131.138-.2.207-.109.116-.161.175-.127.145-.19.217-.1.117-.152.176c-.064.076-.126.154-.189.232-.046.058-.094.115-.139.173-.066.084-.129.17-.193.255-.04.054-.082.107-.12.161-.081.111-.158.224-.236.338-.02.03-.042.059-.062.089q-.144.215-.281.434c-.031.051-.061.1-.092.153-.059.1-.118.2-.175.294-.035.062-.069.125-.1.187-.05.09-.1.179-.147.27-.035.067-.069.136-.1.2-.044.087-.089.175-.131.263-.034.07-.066.141-.1.212-.041.087-.081.174-.119.262-.032.073-.062.146-.093.219s-.073.176-.109.264-.058.149-.086.224-.067.178-.1.267-.053.152-.079.229-.06.18-.088.27-.048.154-.071.232-.054.183-.079.275-.042.155-.063.234-.047.186-.069.28c-.019.078-.037.156-.054.235-.021.1-.041.19-.059.286-.016.078-.032.156-.046.235-.018.1-.034.2-.05.294-.013.077-.026.155-.037.232-.015.1-.027.2-.04.3-.009.075-.02.151-.028.227-.012.107-.021.214-.03.321-.006.072-.014.143-.019.215-.009.12-.014.24-.02.361,0,.06-.007.119-.01.179q-.01.271-.01.544c0,.2.007.383.015.588a.83.83,0,0,0,.018.139l0,.011a.8.8,0,0,0,.041.128l0,.012a.809.809,0,0,0,.062.116l.009.014a.829.829,0,0,0,.082.1l.006.007.108.114c.082.087.163.173.248.258a20.108,20.108,0,0,0,28.361,0c.085-.085.166-.171.248-.258l.108-.114a19.974,19.974,0,0,0-.355-27.925Z" transform="translate(0.018 -0.054)" fill="#fff"/>
</svg>
