<svg xmlns="http://www.w3.org/2000/svg" width="39.223" height="40" viewBox="0 0 39.223 40">
  <path id="open-book" d="M38.424,31.939a.806.806,0,0,0,.8-.814V10.311A10.224,10.224,0,0,0,29.112,0h-.188a10.126,10.126,0,0,0-9.313,6.3A10.126,10.126,0,0,0,10.3,0h-.188A10.224,10.224,0,0,0,0,10.311V39.186A.806.806,0,0,0,.8,40H.815a.805.805,0,0,0,.8-.784,8.556,8.556,0,0,1,8.5-8.363H10.3a8.556,8.556,0,0,1,8.5,8.363.805.805,0,0,0,.8.784h.035a.805.805,0,0,0,.8-.784,8.556,8.556,0,0,1,8.5-8.363h.188a8.556,8.556,0,0,1,8.5,8.363.805.805,0,0,0,.8.784h.017a.806.806,0,0,0,.8-.814.832.832,0,0,0-.026-.206,10.357,10.357,0,0,0-3.065-6.859,9.94,9.94,0,0,0-7.02-2.9h-.188a9.94,9.94,0,0,0-7.02,2.9,10.307,10.307,0,0,0-2.293,3.419,10.308,10.308,0,0,0-2.293-3.419,9.94,9.94,0,0,0-7.02-2.9h-.188a9.94,9.94,0,0,0-7.02,2.9A10.332,10.332,0,0,0,1.6,33.984V10.311a8.61,8.61,0,0,1,8.514-8.683H10.3a8.61,8.61,0,0,1,8.514,8.683V28.547a.8.8,0,1,0,1.6,0V10.311a8.61,8.61,0,0,1,8.514-8.683h.188a8.61,8.61,0,0,1,8.514,8.683V31.125A.806.806,0,0,0,38.424,31.939Z" fill="#fff"/>
</svg>
