<svg xmlns="http://www.w3.org/2000/svg" width="50" height="50" viewBox="0 0 50 50">
  <g id="end" transform="translate(7 -28.263)">
    <circle id="Ellipse_13" data-name="Ellipse 13" cx="25" cy="25" r="25" transform="translate(-7 28.263)" fill="#e92b5f"/>
    <path id="Path_82" data-name="Path 82" d="M4.747,46.568C2.3,47.495.069,49.074,0,51.316a35.242,35.242,0,0,0,.275,3.707,2.185,2.185,0,0,0,2.419,1.922l.086-.011,6.864-1.087a2.184,2.184,0,0,0,1.773-1.624l.892-3.546h0a29.538,29.538,0,0,1,10.364-.137l.641.1.9,3.569a2.184,2.184,0,0,0,1.773,1.624l6.864,1.087A2.186,2.186,0,0,0,35.349,55.1c0-.029.008-.057.011-.086a35.242,35.242,0,0,0,.275-3.707c-.069-2.288-2.288-3.752-4.747-4.747C23.3,43.422,12.607,43.571,4.747,46.568Z" transform="translate(0 3)" fill="#fff"/>
  </g>
</svg>
