<svg xmlns="http://www.w3.org/2000/svg" xmlns:xlink="http://www.w3.org/1999/xlink" width="1126.662" height="785.92" viewBox="0 0 1126.662 785.92">
  <defs>
    <linearGradient id="linear-gradient" x1="0.499" y1="1" x2="0.499" y2="-0.001" gradientUnits="objectBoundingBox">
      <stop offset="0" stop-color="gray" stop-opacity="0.251"/>
      <stop offset="0.54" stop-color="gray" stop-opacity="0.122"/>
      <stop offset="1" stop-color="gray" stop-opacity="0.102"/>
    </linearGradient>
    <linearGradient id="linear-gradient-2" x1="0.5" y1="1" x2="0.5" y2="0" xlink:href="#linear-gradient"/>
  </defs>
  <g id="undraw_social_networking_nqk4_1_1_" data-name="undraw_social_networking_nqk4_1 (1)" transform="translate(0.066 0.009)">
    <path id="Path_1" data-name="Path 1" d="M1096.72,515.28c-39.15,53.72-26.23,130.4-3.6,191.49,7.58,20.45,16.19,42.08,12.26,64.33-4.8,27.2-27.36,47.58-50.81,58.68-42.75,20.23-93.25,17-131.49-8.49-33-22-56.23-58.56-89.87-79.51-56.3-35.05-129.39-19.39-192.05,7.37-44.33,18.93-92.89,43.31-136.09,25.83-30.4-12.3-50.87-43.61-61.64-77.08-5.2-16.16-8.84-33.7-19.2-46.35-6.16-7.52-14.3-12.76-22.67-17.14-76.39-40-174.65-15-248.71-59.63-50-30.14-81.12-88.63-94.05-150.12s-9.73-126.4-4.58-190.2c3.66-45.34,9.45-93.79,36.71-129.42,28.83-37.68,77.15-52.66,120.36-46.75s81.94,29.94,115.84,58.54c42.37,35.75,81.38,80.62,134.11,94.18,35.91,9.24,74.06,2.7,111.39-.19,62.4-4.82,124.58.73,186.38,7,59.16,6,118.73,12.7,174.76,32.37,39.65,13.92,71.08,40.23,108.41,58.21,24.33,11.72,51.1,14.44,74,29.58,28.26,18.65,53.8,51.69,45.51,91.34C1153.86,467,1117.5,486.77,1096.72,515.28Z" transform="translate(-36.68 -57.05)" fill="#3082ce" opacity="0.1"/>
    <rect id="Rectangle_1" data-name="Rectangle 1" width="205.46" height="138.04" rx="9.61" transform="translate(380.65 158.91)" fill="#474059"/>
    <rect id="Rectangle_2" data-name="Rectangle 2" width="196.38" height="112.77" transform="translate(384.97 175.03)" fill="#fff"/>
    <ellipse id="Ellipse_1" data-name="Ellipse 1" cx="1.73" cy="1.87" rx="1.73" ry="1.87" transform="translate(481.43 167.33)" fill="#fff"/>
    <rect id="Rectangle_3" data-name="Rectangle 3" width="36" height="38" transform="translate(464.84 291.95)" fill="#474059"/>
    <path id="Path_2" data-name="Path 2" d="M461.84,326.95h44a6,6,0,0,1,6,6h-56a6,6,0,0,1,6-6Z" fill="#474059"/>
    <rect id="Rectangle_4" data-name="Rectangle 4" width="148" height="51" transform="translate(232.84 358.95)" fill="#c0bccf"/>
    <rect id="Rectangle_5" data-name="Rectangle 5" width="32" height="278" transform="translate(836.84 333.95)" fill="#c0bccf"/>
    <rect id="Rectangle_6" data-name="Rectangle 6" width="148" height="3" transform="translate(232.84 358.95)" opacity="0.1"/>
    <rect id="Rectangle_7" data-name="Rectangle 7" width="32" height="28" transform="translate(836.84 333.95)" opacity="0.1"/>
    <rect id="Rectangle_8" data-name="Rectangle 8" width="148" height="51" transform="translate(232.84 407.95)" fill="#c0bccf"/>
    <circle id="Ellipse_2" data-name="Ellipse 2" cx="9" cy="9" r="9" transform="translate(297.84 423.95)" fill="#3082ce"/>
    <circle id="Ellipse_3" data-name="Ellipse 3" cx="9" cy="9" r="9" transform="translate(297.84 374.95)" fill="#3082ce"/>
    <rect id="Rectangle_9" data-name="Rectangle 9" width="148" height="51" transform="translate(232.84 458.95)" fill="#c0bccf"/>
    <circle id="Ellipse_4" data-name="Ellipse 4" cx="9" cy="9" r="9" transform="translate(297.84 473.95)" fill="#3082ce"/>
    <rect id="Rectangle_10" data-name="Rectangle 10" width="148" height="51" transform="translate(232.84 509.95)" fill="#c0bccf"/>
    <circle id="Ellipse_5" data-name="Ellipse 5" cx="9" cy="9" r="9" transform="translate(297.84 524.95)" fill="#3082ce"/>
    <rect id="Rectangle_11" data-name="Rectangle 11" width="148" height="51" transform="translate(232.84 560.95)" fill="#c0bccf"/>
    <circle id="Ellipse_6" data-name="Ellipse 6" cx="9" cy="9" r="9" transform="translate(297.84 575.95)" fill="#3082ce"/>
    <rect id="Rectangle_12" data-name="Rectangle 12" width="148" height="4" transform="translate(232.84 455.95)" opacity="0.1"/>
    <rect id="Rectangle_13" data-name="Rectangle 13" width="148" height="4" transform="translate(232.84 405.95)" opacity="0.1"/>
    <rect id="Rectangle_14" data-name="Rectangle 14" width="148" height="4" transform="translate(232.84 506.95)" opacity="0.1"/>
    <rect id="Rectangle_15" data-name="Rectangle 15" width="148" height="4" transform="translate(232.84 557.95)" opacity="0.1"/>
    <path id="Path_3" data-name="Path 3" d="M188.29,632.29s-3.3-97.76-56.19-153c-22.2-23.18-36.78-52.62-40.64-84.48a249.262,249.262,0,0,1-1.24-45.57" transform="translate(-36.68 -57.05)" fill="none" stroke="#535461" stroke-miterlimit="10" stroke-width="2"/>
    <path id="Path_4" data-name="Path 4" d="M57.09,314.26c3.62,10.92,33.88,36,33.88,36s9.27-38.21,5.65-49.12a20.824,20.824,0,0,0-39.53,13.11Z" transform="translate(-36.68 -57.05)" fill="#3082ce"/>
    <path id="Path_5" data-name="Path 5" d="M44.47,385.55c9,7.2,48,11.82,48,11.82s-13-37.11-22-44.3a20.825,20.825,0,0,0-26.06,32.49Z" transform="translate(-36.68 -57.05)" fill="#3082ce"/>
    <path id="Path_6" data-name="Path 6" d="M80.17,488.4c11.38,1.68,47.41-14,47.41-14s-29.95-25.51-41.32-27.2a20.824,20.824,0,1,0-6.09,41.2Z" transform="translate(-36.68 -57.05)" fill="#3082ce"/>
    <path id="Path_7" data-name="Path 7" d="M124.69,560.14c10.93,3.58,49.1-5.82,49.1-5.82s-25.21-30.17-36.14-33.75a20.825,20.825,0,0,0-13,39.57Z" transform="translate(-36.68 -57.05)" fill="#3082ce"/>
    <path id="Path_8" data-name="Path 8" d="M134.69,385.72c-5.31,10.2-39.17,30.18-39.17,30.18s-3.08-39.19,2.23-49.4a20.82,20.82,0,1,1,36.94,19.22Z" transform="translate(-36.68 -57.05)" fill="#3082ce"/>
    <path id="Path_9" data-name="Path 9" d="M185.7,470.28c-8.12,8.15-46.4,17.07-46.4,17.07s8.79-38.32,16.9-46.47a20.821,20.821,0,1,1,29.5,29.39Z" transform="translate(-36.68 -57.05)" fill="#3082ce"/>
    <path id="Path_10" data-name="Path 10" d="M224,559.27c-6.62,9.4-42.85,24.67-42.85,24.67s2.18-39.25,8.81-48.66a20.82,20.82,0,1,1,34,24Z" transform="translate(-36.68 -57.05)" fill="#3082ce"/>
    <path id="Path_11" data-name="Path 11" d="M176.67,591.83s30-43.64,24.74-84.7a80.24,80.24,0,0,1,9.48-49.86A135,135,0,0,1,225,437" transform="translate(-36.68 -57.05)" fill="none" stroke="#535461" stroke-miterlimit="10" stroke-width="2"/>
    <path id="Path_12" data-name="Path 12" d="M221.84,411.14c-1.93,5.92,3.17,26.58,3.17,26.58s16.33-13.66,18.26-19.57a11.272,11.272,0,0,0-21.43-7Z" transform="translate(-36.68 -57.05)" fill="#3082ce"/>
    <path id="Path_13" data-name="Path 13" d="M193.41,438.12c1.59,6,17.11,20.59,17.11,20.59s6.28-20.34,4.69-26.36a11.275,11.275,0,0,0-21.8,5.77Z" transform="translate(-36.68 -57.05)" fill="#3082ce"/>
    <path id="Path_14" data-name="Path 14" d="M175.87,494.39c4.41,4.39,25.16,9.14,25.16,9.14s-4.84-20.73-9.26-25.12a11.278,11.278,0,1,0-15.9,16Z" transform="translate(-36.68 -57.05)" fill="#3082ce"/>
    <path id="Path_15" data-name="Path 15" d="M172.19,540c3.61,5.07,23.26,13.26,23.26,13.26s-1.27-21.25-4.88-26.32A11.274,11.274,0,0,0,172.19,540Z" transform="translate(-36.68 -57.05)" fill="#3082ce"/>
    <path id="Path_16" data-name="Path 16" d="M232.64,467.22c-5.59,2.74-26.76.54-26.76.54S217.14,449.7,222.74,447a11.272,11.272,0,0,1,9.91,20.25Z" transform="translate(-36.68 -57.05)" fill="#3082ce"/>
    <path id="Path_17" data-name="Path 17" d="M227.66,520.45C221.5,521.38,202,513,202,513s16.15-13.86,22.31-14.8a11.273,11.273,0,1,1,3.39,22.29Z" transform="translate(-36.68 -57.05)" fill="#3082ce"/>
    <path id="Path_18" data-name="Path 18" d="M215.71,571.52c-5.91,2-26.6-3-26.6-3s13.58-16.39,19.49-18.36a11.275,11.275,0,0,1,7.11,21.4Z" transform="translate(-36.68 -57.05)" fill="#3082ce"/>
    <path id="Path_19" data-name="Path 19" d="M221.84,411.14c-1.93,5.92,3.17,26.58,3.17,26.58s16.33-13.66,18.26-19.57a11.272,11.272,0,0,0-21.43-7Z" transform="translate(-36.68 -57.05)" fill="#fff" opacity="0.5"/>
    <path id="Path_20" data-name="Path 20" d="M193.41,438.12c1.59,6,17.11,20.59,17.11,20.59s6.28-20.34,4.69-26.36a11.275,11.275,0,0,0-21.8,5.77Z" transform="translate(-36.68 -57.05)" fill="#fff" opacity="0.5"/>
    <path id="Path_21" data-name="Path 21" d="M175.87,494.39c4.41,4.39,25.16,9.14,25.16,9.14s-4.84-20.73-9.26-25.12a11.278,11.278,0,1,0-15.9,16Z" transform="translate(-36.68 -57.05)" fill="#fff" opacity="0.5"/>
    <path id="Path_22" data-name="Path 22" d="M172.19,540c3.61,5.07,23.26,13.26,23.26,13.26s-1.27-21.25-4.88-26.32A11.274,11.274,0,0,0,172.19,540Z" transform="translate(-36.68 -57.05)" fill="#fff" opacity="0.5"/>
    <path id="Path_23" data-name="Path 23" d="M232.64,467.22c-5.59,2.74-26.76.54-26.76.54S217.14,449.7,222.74,447a11.272,11.272,0,0,1,9.91,20.25Z" transform="translate(-36.68 -57.05)" fill="#fff" opacity="0.5"/>
    <path id="Path_24" data-name="Path 24" d="M227.66,520.45C221.5,521.38,202,513,202,513s16.15-13.86,22.31-14.8a11.273,11.273,0,1,1,3.39,22.29Z" transform="translate(-36.68 -57.05)" fill="#fff" opacity="0.5"/>
    <path id="Path_25" data-name="Path 25" d="M215.71,571.52c-5.91,2-26.6-3-26.6-3s13.58-16.39,19.49-18.36a11.275,11.275,0,0,1,7.11,21.4Z" transform="translate(-36.68 -57.05)" fill="#fff" opacity="0.5"/>
    <path id="Path_26" data-name="Path 26" d="M195.5,653.11H110.17L88.84,522.98h128Z" fill="#474059"/>
    <path id="Path_27" data-name="Path 27" d="M200.5,522.98l-19.93,121.6h-71.8l1.4,8.53H195.5l21.34-130.13Z" opacity="0.1"/>
    <rect id="Rectangle_16" data-name="Rectangle 16" width="643" height="30" transform="translate(229.84 329.95)" fill="#c0bccf"/>
    <rect id="Rectangle_17" data-name="Rectangle 17" width="92" height="97.23" transform="translate(389.84 182.83)" fill="#e8eaf1"/>
    <rect id="Rectangle_18" data-name="Rectangle 18" width="88" height="93" transform="translate(391.84 184.95)" fill="#fff"/>
    <path id="Path_28" data-name="Path 28" d="M507,309.78c1.23-9.74-1.23-10.35-1.23-10.35l-3.53-1.69a14.594,14.594,0,0,0,.07-1.72,12.309,12.309,0,0,0,0-1.43c-.35-3.84-2.63-7.19-4.25-10.69a32.07,32.07,0,0,1-2.78-10.23c-.43-4.37,0-8.91-1.5-13a23.379,23.379,0,0,0-6.23-8.55,31.54,31.54,0,0,0-10-6.78,16.5,16.5,0,0,0-11.91-.34c-3.4,1.34-6,4-8.58,6.63a30.239,30.239,0,0,0-4.85,5.9,26.668,26.668,0,0,0-2.73,8.92,147.521,147.521,0,0,0-1.68,14.91c-.27,4.16-.68,8.89-4,11.45-1.63,1.25-3.91,1.95-4.66,3.84a4.2,4.2,0,0,0-.24,1.78,7.119,7.119,0,0,0,.1,1.51,4.457,4.457,0,0,0,.17.87,68.046,68.046,0,0,0-2.4,7.79,205.423,205.423,0,0,0-4.93,27.39h59.32a7,7,0,0,0,1.69,0h15.43Z" transform="translate(-36.68 -57.05)" fill="url(#linear-gradient)"/>
    <path id="Path_29" data-name="Path 29" d="M490.93,296.27l-13.14,18.52L464,313.6s-17.92,1.19-6-12.55c5.74-6.6,7.62-12.1,8-16a12.431,12.431,0,0,0-.85-6.67l14.94-1.79a11.14,11.14,0,0,0-.24,6.23C481.79,290.56,490.93,296.27,490.93,296.27Z" transform="translate(-36.68 -57.05)" fill="#ffb9b9"/>
    <path id="Path_30" data-name="Path 30" d="M479.93,282.79A14.93,14.93,0,0,1,466.09,285a12.431,12.431,0,0,0-.85-6.67l14.94-1.79a11.141,11.141,0,0,0-.25,6.25Z" transform="translate(-36.68 -57.05)" opacity="0.1"/>
    <circle id="Ellipse_7" data-name="Ellipse 7" cx="14.94" cy="14.94" r="14.94" transform="translate(421.29 198.29)" fill="#ffb9b9"/>
    <path id="Path_31" data-name="Path 31" d="M471.81,310s5.38-6.57,5.38-11.95a12.08,12.08,0,0,1,7.17-6c5.38-1.79,4.78,0,4.78,0l3.58,14.34-1.19,25.69.6,3H447.91l3-11.95L450.3,313l2.39-15.53,7.17-4.18,5.38,7.17Z" transform="translate(-36.68 -57.05)" opacity="0.1"/>
    <path id="Path_32" data-name="Path 32" d="M471.81,310.61s5.38-6.57,5.38-11.95a12.08,12.08,0,0,1,7.17-6c5.38-1.79,4.78,0,4.78,0L492.72,307l-1.19,25.69.6,3H447.91l3-11.95-.6-10.16,2.39-15.53,7.17-4.18,5.38,7.17Z" transform="translate(-36.68 -57.05)" fill="#fff"/>
    <path id="Path_33" data-name="Path 33" d="M463.45,292.09l-18.52,3s-3-.6-6.57,13.74a204.015,204.015,0,0,0-4.78,26.88h23.1s1.39-23.9,5-25.69l5-7.73s-8-.63-6.82-4.81S463.45,292.09,463.45,292.09Z" transform="translate(-36.68 -57.05)" opacity="0.1"/>
    <path id="Path_34" data-name="Path 34" d="M462.85,292.09l-18.52,3s-3-.6-6.57,13.74A204,204,0,0,0,433,335.7h23.1s1.39-23.9,5-25.69l5-7.73s-8-.63-6.82-4.81S462.85,292.09,462.85,292.09Z" transform="translate(-36.68 -57.05)" fill="#747b9c"/>
    <path id="Path_35" data-name="Path 35" d="M484.36,290.3l19.71,9.56s2.39.6,1.19,10.16l1.19,25.69h-21.2a76.61,76.61,0,0,0,.9-24.49A163.7,163.7,0,0,1,484.36,290.3Z" transform="translate(-36.68 -57.05)" opacity="0.1"/>
    <path id="Path_36" data-name="Path 36" d="M485,290.3l19.71,9.56s2.39.6,1.19,10.16l1.19,25.69H485.85a76.608,76.608,0,0,0,.9-24.49A163.7,163.7,0,0,1,485,290.3Z" transform="translate(-36.68 -57.05)" fill="#747b9c"/>
    <path id="Path_37" data-name="Path 37" d="M466,263.76c-.26,2.42-1.92,4.41-3.3,6.42s-2.58,4.49-1.81,6.8c.3.9.89,1.7,1.1,2.63.36,1.6-.45,3.25-.31,4.88.19,2.24,2.09,3.9,3.14,5.88,2.22,4.19.52,9.38-1.88,13.46s-5.54,7.95-6.33,12.62c-.73,4.32.67,8.69,2.18,12.8a4,4,0,0,1,.34,2.57c-.46,1.38-2.19,1.79-3.65,1.89a38.481,38.481,0,0,1-4.79,0,4,4,0,0,1-1.75-.37c-1.1-.6-1.43-2-1.84-3.16s-1.31-2.48-2.56-2.35c-.82.09-1.46.79-2.27.93a2.34,2.34,0,0,1-2-.82c-1.49-1.61-1.13-4.21-.15-6.17s2.48-3.67,3.13-5.76c1.61-5.2-2.42-10.35-3.27-15.73a5.079,5.079,0,0,1,.14-2.64c.73-1.86,2.94-2.55,4.52-3.77,3.23-2.51,3.63-7.16,3.89-11.24A146.66,146.66,0,0,1,450.09,268a26.43,26.43,0,0,1,2.64-8.75,29.608,29.608,0,0,1,4.7-5.79c2.46-2.56,5-5.18,8.32-6.5a15.8,15.8,0,0,1,11.54.33A30.55,30.55,0,0,1,487,254a22.941,22.941,0,0,1,6,8.39c1.47,4.05,1,8.51,1.45,12.8a31.79,31.79,0,0,0,2.69,10c1.57,3.44,3.78,6.73,4.12,10.5.27,3-.71,6-1.21,8.95-.88,5.17-.35,10.46.17,15.67A12.611,12.611,0,0,0,501,324a13.19,13.19,0,0,0,3.56,4.27,1.53,1.53,0,0,1,.63,1,1.21,1.21,0,0,1-.47.88c-1.81,1.61-4.94.42-6.9,1.85a11.09,11.09,0,0,0-1.49,1.58,6.72,6.72,0,0,1-11.51-3.12c-.51-2.34.25-4.74.54-7.12.9-7.51-2.94-14.65-6-21.56-1.44-3.23-2.75-6.73-2.22-10.23.43-2.81,2-5.28,3.15-7.88,2.31-5.19,3-11.27,1-16.6a16.45,16.45,0,0,0-8.46-9.21c-1.42-.64-3.44-1.52-4.93-.66C465.45,258.6,466.2,261.52,466,263.76Z" transform="translate(-36.68 -57.05)" opacity="0.1"/>
    <path id="Path_38" data-name="Path 38" d="M466,263.16c-.26,2.42-1.92,4.41-3.3,6.42s-2.58,4.49-1.81,6.8c.3.9.89,1.7,1.1,2.63.36,1.6-.45,3.25-.31,4.88.19,2.24,2.09,3.9,3.14,5.88,2.22,4.19.52,9.38-1.88,13.46s-5.54,7.95-6.33,12.62c-.73,4.32.67,8.69,2.18,12.8a4,4,0,0,1,.34,2.57c-.46,1.38-2.19,1.79-3.65,1.89a38.486,38.486,0,0,1-4.79,0,4,4,0,0,1-1.75-.37c-1.1-.6-1.43-2-1.84-3.16s-1.31-2.48-2.56-2.35c-.82.09-1.46.79-2.27.93a2.34,2.34,0,0,1-2-.82c-1.49-1.61-1.13-4.21-.15-6.17s2.48-3.67,3.13-5.76c1.61-5.2-2.42-10.35-3.27-15.73a5.079,5.079,0,0,1,.14-2.64c.73-1.86,2.94-2.55,4.52-3.77,3.23-2.51,3.63-7.16,3.89-11.24a146.633,146.633,0,0,1,1.62-14.64,26.429,26.429,0,0,1,2.64-8.75,29.61,29.61,0,0,1,4.7-5.79c2.46-2.56,5-5.18,8.32-6.5a15.8,15.8,0,0,1,11.54.33,30.55,30.55,0,0,1,9.69,6.65,22.94,22.94,0,0,1,6,8.39c1.47,4.05,1,8.51,1.45,12.8a31.791,31.791,0,0,0,2.69,10c1.57,3.44,3.78,6.73,4.12,10.5.27,3-.71,6-1.21,8.95-.88,5.17-.35,10.46.17,15.67a12.611,12.611,0,0,0,.76,3.71,13.19,13.19,0,0,0,3.56,4.27,1.53,1.53,0,0,1,.63,1,1.21,1.21,0,0,1-.47.88c-1.81,1.61-4.94.42-6.9,1.85a11.092,11.092,0,0,0-1.49,1.58,6.72,6.72,0,0,1-11.51-3.12c-.51-2.34.25-4.74.54-7.12.9-7.51-2.94-14.65-6-21.56-1.44-3.23-2.75-6.73-2.22-10.23.43-2.81,2-5.28,3.15-7.88,2.31-5.19,3-11.27,1-16.6a16.45,16.45,0,0,0-8.46-9.21c-1.42-.64-3.44-1.52-4.93-.66C465.45,258,466.2,260.93,466,263.16Z" transform="translate(-36.68 -57.05)" fill="#434343"/>
    <rect id="Rectangle_21" data-name="Rectangle 21" width="72" height="3" transform="translate(500.84 188.95)" fill="#e8eaf1"/>
    <rect id="Rectangle_22" data-name="Rectangle 22" width="72" height="3" transform="translate(500.84 196.95)" fill="#e8eaf1"/>
    <rect id="Rectangle_23" data-name="Rectangle 23" width="72" height="3" transform="translate(500.84 204.95)" fill="#e8eaf1"/>
    <rect id="Rectangle_24" data-name="Rectangle 24" width="72" height="3" transform="translate(500.84 212.95)" fill="#e8eaf1"/>
    <rect id="Rectangle_25" data-name="Rectangle 25" width="72" height="3" transform="translate(500.84 220.95)" fill="#e8eaf1"/>
    <rect id="Rectangle_26" data-name="Rectangle 26" width="72" height="3" transform="translate(500.84 228.95)" fill="#e8eaf1"/>
    <rect id="Rectangle_27" data-name="Rectangle 27" width="72" height="3" transform="translate(500.84 236.95)" fill="#e8eaf1"/>
    <rect id="Rectangle_28" data-name="Rectangle 28" width="72" height="3" transform="translate(500.84 244.95)" fill="#e8eaf1"/>
    <rect id="Rectangle_29" data-name="Rectangle 29" width="72" height="3" transform="translate(500.84 252.95)" fill="#e8eaf1"/>
    <rect id="Rectangle_30" data-name="Rectangle 30" width="72" height="3" transform="translate(500.84 260.95)" fill="#e8eaf1"/>
    <rect id="Rectangle_31" data-name="Rectangle 31" width="72" height="3" transform="translate(500.84 268.95)" fill="#e8eaf1"/>
    <path id="Path_39" data-name="Path 39" d="M792.87,482.83A73,73,0,0,0,797.13,439,374,374,0,0,1,790,385.75c-1.14-17.15-3.64-28.26-6.37-35.46h0s1.05-23.34-14.76-35.51-52.71-31.45-52.71-31.45l3.69-15.07h-.15a14.481,14.481,0,0,0,3.17-1.45,13.761,13.761,0,0,0,2.85-2.37c6.24-5.46,6.33-15.48,9.29-23.46,2.28-6.14,6.55-11.4,9.61-17.22,5.57-10.6,6.87-23.61,1.69-34.39s-17.45-18.53-29.7-17.14a53.37,53.37,0,0,0-11.56,3.11c-8.87,3.12-15.87-5.71-24.74-2.58-4.45,1.57-21.06,3.27-24.66,7.84a4.1,4.1,0,0,0-1.7,2.3c-.94,4.44,7.19,13.33,13.22,20.43a32.539,32.539,0,0,0-7.42,20.66q0,.255,0,.51v.51a32.74,32.74,0,0,0,9.95,23.43c-.51,4.46-1.27,9.48-2.36,14.62h-.73s-4.22,18.26-17.92,18.26c-3.66,0-8.66-.22-14-.53a146.382,146.382,0,0,0-47.83,5.51c-5.34,1.49-11.22,1.62-16.14-1.93-11.76-8.49-24.42-30.11-26.15-33.12,1.32-8.77,1.14-24.83-17.07-27.75-21.35-3.42-20.18,21.32-7.9,37.06A9.8,9.8,0,0,0,519,263c-1.05,13.19,11.6,37.54,14.76,40.58S537,325.89,559.1,331s38,7.1,39,32.47,22.14,51.74,11.6,81.17c-6.33,17.66-4.68,26.91-2.35,31.48-.19.6-.37,1.19-.57,1.8-2.4,7.29-5.38,14.61-8.68,19-.76,1-1.5,2.08-2.21,3.2-8.58,5.56-17.54,11.78-21,15.57-7.38,8.12-4.22,40.58,0,53.77s30.57,93.34,30.57,93.34h1l.32,2,1.06,6.64a9.9,9.9,0,0,1-1-.62,1.71,1.71,0,0,0-2.53.68L599.16,683s-21.08-9.11-22.16,12.2v2.44c-.05,11.33,6.19,15.55,11.54,17.07a44.111,44.111,0,0,1,13.74,6.38c5.07,3.64,12.79,7.36,21.57,5.34a21.325,21.325,0,0,1,5.41-.5c3.79.11,10.2-1,10-9.46a16.367,16.367,0,0,0,0-2s-4.45-17.13-4.64-25a5.849,5.849,0,0,1,.42-2.34c.75-1.44,1-4.16.93-7.07a74.219,74.219,0,0,0-.391-7.625,1.18,1.18,0,0,0-2.148-.5l-.17.23c-.68-2.25-1.47-4.88-2.21-7.36l-.61-2h1.42S623.41,613,626.57,609c2.07-2.65-1.27-34.36-3.83-56,25.68,1.63,66.61-2.91,94.61-4.31a35.84,35.84,0,0,0,15.29-4.26c-2.53,20.52-7.23,61.53-4.87,64.56,3.16,4.06-5.27,53.77-5.27,53.77h1.27l-.46,1.52h.16c-.78,2.63-1.63,5.46-2.36,7.87l-.17-.23a1.18,1.18,0,0,0-2.15.51,74.143,74.143,0,0,0-.39,7.61c0,2.91.19,5.63.93,7.07a5.84,5.84,0,0,1,.42,2.34c-.19,7.92-4.64,25-4.64,25a16.416,16.416,0,0,0,0,2c-.21,8.5,6.2,9.58,10,9.46a21.328,21.328,0,0,1,5.41.5c8.78,2,16.5-1.71,21.57-5.34a44.11,44.11,0,0,1,13.74-6.38c5.35-1.52,11.59-5.74,11.54-17.07v-2.44C776.26,673.89,755.18,683,755.18,683L750,671.46a1.71,1.71,0,0,0-2.53-.68,9.865,9.865,0,0,1-1,.62l1.39-8.67h1s26.35-80.15,30.57-93.34,7.38-45.66,0-53.77c-3.49-3.84-12.62-10.16-21.29-15.77a197.677,197.677,0,0,1,21.29,14.76ZM747.35,493,744,491a15.919,15.919,0,0,0-2.53-3.29,26.665,26.665,0,0,1-2.58-2.9c-2.06-6.23-9.67-32,.48-45.29,7.37-9.68,7.93-28.38,7.35-40.72,5,24.51,12,59,12.68,66.08C760.23,473.72,751.17,487.63,747.35,493Z" transform="translate(-36.68 -57.05)" fill="url(#linear-gradient-2)"/>
    <path id="Path_40" data-name="Path 40" d="M744,655.5l-4,26-24-5s5-17,6-21,1,0,1,0Z" transform="translate(-36.68 -57.05)" fill="#d6e6f9"/>
    <path id="Path_41" data-name="Path 41" d="M636,676.5l-24,5-2.77-18-1.23-8h21s0-4,1,0c.36,1.44,1.24,4.58,2.23,8C634,669.56,636,676.5,636,676.5Z" transform="translate(-36.68 -57.05)" fill="#d6e6f9"/>
    <path id="Path_42" data-name="Path 42" d="M632.25,663.5h-23l-1.23-8h21s0-4,1,0C630.38,656.94,631.26,660.08,632.25,663.5Z" transform="translate(-36.68 -57.05)" opacity="0.1"/>
    <path id="Path_43" data-name="Path 43" d="M719.79,663h23l1.23-8H723s0-4-1,0C721.66,656.44,720.78,659.58,719.79,663Z" transform="translate(-36.68 -57.05)" opacity="0.1"/>
    <path id="Path_44" data-name="Path 44" d="M767,340.5s13,1,16,48a382.194,382.194,0,0,0,6.81,52.5,74.54,74.54,0,0,1-4,43.16L773,515.5s-24-20-32-19c0,0,14-19,13-30s-17-90-17-90Z" transform="translate(-36.68 -57.05)" fill="#d6e6f9"/>
    <path id="Path_45" data-name="Path 45" d="M617,489.5s-31,19-38,27-4,40,0,53,29,92,29,92h25s-8-49-5-53-6-75-6-75Z" transform="translate(-36.68 -57.05)" fill="#5f546f"/>
    <path id="Path_46" data-name="Path 46" d="M735,489.5s31,19,38,27,4,40,0,53-29,92-29,92H719s8-49,5-53,6-75,6-75Z" transform="translate(-36.68 -57.05)" fill="#5f546f"/>
    <path id="Path_47" data-name="Path 47" d="M617,489.5s-31,19-38,27-4,40,0,53,29,92,29,92h25s-8-49-5-53-6-75-6-75Z" transform="translate(-36.68 -57.05)" opacity="0.1"/>
    <path id="Path_48" data-name="Path 48" d="M735,489.5s31,19,38,27,4,40,0,53-29,92-29,92H719s8-49,5-53,6-75,6-75Z" transform="translate(-36.68 -57.05)" opacity="0.1"/>
    <path id="Path_49" data-name="Path 49" d="M670,236.5s0,39-14,59,64,3,64,3a20.77,20.77,0,0,1-7.5-10.5c-4.12-14.67-5.68-40.51.5-51.5C722,220.5,670,236.5,670,236.5Z" transform="translate(-36.68 -57.05)" fill="#ffced8"/>
    <circle id="Ellipse_8" data-name="Ellipse 8" cx="33" cy="33" r="33" transform="translate(622.84 139.95)" opacity="0.1"/>
    <circle id="Ellipse_9" data-name="Ellipse 9" cx="33" cy="33" r="33" transform="translate(622.84 138.95)" fill="#ffced8"/>
    <path id="Path_50" data-name="Path 50" d="M716.06,569.34c-35.77,1.58-95.27,8.24-104.29-1.64-14.55-15.93-9.39-30.27-1.88-39,2.94-3.43,5.58-9.17,7.72-14.9.72-1.94,1.39-3.87,2-5.71,2.31-7.13,10-12.05,18.7-12.05h72.23c8.75,0,16.45,5,18.72,12.13a32.088,32.088,0,0,0,4.6,9.35,22.64,22.64,0,0,0,3.69,4c3.64,3.09,6,9.75,7.53,17.08C748.31,554.12,734.63,568.52,716.06,569.34Z" transform="translate(-36.68 -57.05)" fill="#5f546f"/>
    <path id="Path_51" data-name="Path 51" d="M716.06,569.34c-35.77,1.58-95.27,8.24-104.29-1.64-14.55-15.93-9.39-30.27-1.88-39,2.94-3.43,5.58-9.17,7.72-14.9.72-1.94,1.39-3.87,2-5.71,2.31-7.13,10-12.05,18.7-12.05h72.23c8.75,0,16.45,5,18.72,12.13a32.088,32.088,0,0,0,4.6,9.35,22.64,22.64,0,0,0,3.69,4c3.64,3.09,6,9.75,7.53,17.08C748.31,554.12,734.63,568.52,716.06,569.34Z" transform="translate(-36.68 -57.05)" opacity="0.1"/>
    <path id="Path_52" data-name="Path 52" d="M623.77,674.26c-3.13-.63-11.3-2.43-14.47-4.84a1.59,1.59,0,0,0-2.4.67L602,681.5s-20-9-21,12c-.58,12.25,5.64,16.67,10.93,18.23A41.137,41.137,0,0,1,605,718c4.81,3.58,12.14,7.25,20.46,5.27a19.5,19.5,0,0,1,5.13-.5c3.73.12,10.16-1,9.45-10.29,0,0-6-24-4-28,1.26-2.52.93-9,.52-13.46a1.11,1.11,0,0,0-2-.51,8.8,8.8,0,0,1-7.71,4A14,14,0,0,1,623.77,674.26Z" transform="translate(-36.68 -57.05)" opacity="0.1"/>
    <path id="Path_53" data-name="Path 53" d="M623.77,675.26c-3.13-.63-11.3-2.43-14.47-4.84a1.59,1.59,0,0,0-2.4.67L602,682.5s-20-9-21,12c-.58,12.25,5.64,16.67,10.93,18.23A41.137,41.137,0,0,1,605,719c4.81,3.58,12.14,7.25,20.46,5.27a19.5,19.5,0,0,1,5.13-.5c3.73.12,10.16-1,9.45-10.29,0,0-6-24-4-28,1.26-2.52.93-9,.52-13.46a1.11,1.11,0,0,0-2-.51,8.8,8.8,0,0,1-7.71,4,14,14,0,0,1-3.08-.25Z" transform="translate(-36.68 -57.05)" fill="#3c3c3c"/>
    <path id="Path_54" data-name="Path 54" d="M728.26,674.26c3.13-.63,11.3-2.43,14.47-4.84a1.59,1.59,0,0,1,2.4.67L750,681.5s20-9,21,12c.58,12.25-5.64,16.67-10.93,18.23a41.139,41.139,0,0,0-13,6.29c-4.81,3.58-12.14,7.25-20.46,5.27a19.5,19.5,0,0,0-5.13-.5c-3.73.12-10.16-1-9.45-10.29,0,0,6-24,4-28-1.26-2.52-.93-9-.52-13.46a1.11,1.11,0,0,1,2-.51,8.8,8.8,0,0,0,7.71,4A14,14,0,0,0,728.26,674.26Z" transform="translate(-36.68 -57.05)" opacity="0.1"/>
    <path id="Path_55" data-name="Path 55" d="M728.26,675.26c3.13-.63,11.3-2.43,14.47-4.84a1.59,1.59,0,0,1,2.4.67L750,682.5s20-9,21,12c.58,12.25-5.64,16.67-10.93,18.23a41.139,41.139,0,0,0-13,6.29c-4.81,3.58-12.14,7.25-20.46,5.27a19.5,19.5,0,0,0-5.13-.5c-3.73.12-10.16-1-9.45-10.29,0,0,6-24,4-28-1.26-2.52-.93-9-.52-13.46a1.11,1.11,0,0,1,2-.51,8.8,8.8,0,0,0,7.71,4,14,14,0,0,0,3.04-.27Z" transform="translate(-36.68 -57.05)" fill="#3c3c3c"/>
    <path id="Path_56" data-name="Path 56" d="M549,261.5s9-29-15-33-18,31,0,44S549,261.5,549,261.5Z" transform="translate(-36.68 -57.05)" fill="#ffced8"/>
    <path id="Path_57" data-name="Path 57" d="M735,490.5c-28,46-122-6-122-6s-2.23-1.22-3.77-5.2c.77-2.43,1.48-4.86,2.12-7.17A20.64,20.64,0,0,1,631.29,457h77a20.61,20.61,0,0,1,19.94,15.23,43.6,43.6,0,0,0,4.9,11.74C734.12,488,735,490.5,735,490.5Z" transform="translate(-36.68 -57.05)" opacity="0.1"/>
    <path id="Path_58" data-name="Path 58" d="M672,267.5h-6s-4,18-17,18c-3.47,0-8.21-.21-13.31-.53a133.92,133.92,0,0,0-45.38,5.43c-5.07,1.47-10.64,1.6-15.31-1.9-12-9-25-33-25-33s-23-1-24,12,11,37,14,40,3,22,24,27,36,7,37,32,21,51,11,80,1,35,1,35,94,52,122,6c0,0-11-31,0-46s6-52,6-52l36-36s1-23-14-35-50-31-50-31l3.5-14.86Z" transform="translate(-36.68 -57.05)" fill="#d6e6f9"/>
    <path id="Path_59" data-name="Path 59" d="M673.08,239.1c-.76,9.41-.46,20.15,6.5,26.54,3.42,3.14,8,4.71,12.49,5.8a79.8,79.8,0,0,0,14.41,2.13c4.44.24,9.17,0,12.9-2.37,7.64-4.93,7.46-15.89,10.52-24.46,2.16-6.06,6.22-11.23,9.12-17,5.28-10.44,6.52-23.27,1.6-33.89S724.07,177.61,712.45,179a49.131,49.131,0,0,0-11,3.07c-8.42,3.08-15.05-5.63-23.47-2.55-4.6,1.68-22.88,3.53-24,9-1.33,6.5,16.36,22.71,18.27,28.4C674.76,224.25,673.08,231.6,673.08,239.1Z" transform="translate(-36.68 -57.05)" opacity="0.1"/>
    <path id="Path_60" data-name="Path 60" d="M674.08,238.1c-.76,9.41-.46,20.15,6.5,26.54,3.42,3.14,8,4.71,12.49,5.8a79.794,79.794,0,0,0,14.41,2.13c4.44.24,9.17,0,12.9-2.37,7.64-4.93,7.46-15.89,10.52-24.46,2.16-6.06,6.22-11.23,9.12-17,5.28-10.44,6.52-23.27,1.6-33.89S725.07,176.61,713.45,178a49.13,49.13,0,0,0-11,3.07c-8.42,3.08-15.05-5.63-23.47-2.55-4.6,1.68-22.88,3.53-24,9-1.33,6.5,16.36,22.71,18.27,28.4C675.76,223.25,674.08,230.6,674.08,238.1Z" transform="translate(-36.68 -57.05)" fill="#404040"/>
    <path id="Path_61" data-name="Path 61" d="M659.52,280.49s6,2.51,23,7.51,30,0,30,0" transform="translate(-36.68 -57.05)" opacity="0.1"/>
    <path id="Path_62" data-name="Path 62" d="M614.5,423.4s28,1.6,37,13.6,12,16,23,16,46,2,51,4" transform="translate(-36.68 -57.05)" opacity="0.1"/>
    <rect id="Rectangle_32" data-name="Rectangle 32" width="16.72" height="19.11" transform="translate(636.48 669.39)" fill="#c0bccf"/>
    <rect id="Rectangle_33" data-name="Rectangle 33" width="13.14" height="96.74" transform="translate(741.58 434.11)" fill="#2a313c"/>
    <rect id="Rectangle_34" data-name="Rectangle 34" width="28.66" height="3.58" transform="translate(720.08 529.65)" fill="#2a313c"/>
    <rect id="Rectangle_35" data-name="Rectangle 35" width="13.14" height="96.74" transform="translate(536.15 434.11)" fill="#2a313c"/>
    <rect id="Rectangle_36" data-name="Rectangle 36" width="28.66" height="3.58" transform="translate(538.54 529.65)" fill="#2a313c"/>
    <rect id="Rectangle_37" data-name="Rectangle 37" width="27.47" height="117.05" transform="translate(632.89 535.63)" fill="#c0bccf"/>
    <path id="Path_63" data-name="Path 63" d="M683.91,550.71c74,2.58,76.44-25.77,76.44-25.77l-4.78-78.61c-1.19-122.43-71.66-104.39-71.66-104.39s-70.47-18-71.66,104.39l-4.78,78.61S609.86,553.29,683.91,550.71Z" transform="translate(-36.68 -57.05)" fill="#2a313c"/>
    <path id="Path_64" data-name="Path 64" d="M683.91,550.71c74,2.58,76.44-25.77,76.44-25.77l-4.78-78.61c-1.19-122.43-71.66-104.39-71.66-104.39s-70.47-18-71.66,104.39l-4.78,78.61S609.86,553.29,683.91,550.71Z" transform="translate(-36.676 -57.05)" fill="#fff" opacity="0.1"/>
    <path id="Path_65" data-name="Path 65" d="M681.91,545.8c70.58,2.46,72.85-24.57,72.85-24.57l-4.55-74.93c-1.14-116.69-68.3-99.49-68.3-99.49s-67.16-17.2-68.3,99.49l-4.55,74.93S611.33,548.26,681.91,545.8Z" transform="translate(-36.68 -57.05)" fill="#2a313c"/>
    <rect id="Rectangle_38" data-name="Rectangle 38" width="29.86" height="51.36" rx="12.5" transform="translate(630.51 456.8)" fill="#c0bccf"/>
    <path id="Path_66" data-name="Path 66" d="M697,705.56v4.17H669.57v-4.14l2.39-.63h22.69Z" transform="translate(-36.68 -57.05)" opacity="0.1"/>
    <path id="Path_67" data-name="Path 67" d="M571.64,745.55S559.69,736,672,706.14h22.69s96.71,23.86,97.9,39.41H778.26S725.71,730,701.82,730s-95.55,2.39-117,15.53Z" transform="translate(-36.68 -57.05)" fill="#c0bccf"/>
    <path id="Path_68" data-name="Path 68" d="M539.6,419.77h5.05a13,13,0,0,1,13,13v6.11H526.6v-6.11a13,13,0,0,1,13-13Z" fill="#2a313c"/>
    <path id="Path_69" data-name="Path 69" d="M745,419.77h5.05a13,13,0,0,1,13,13v6.11H732v-6.11a13,13,0,0,1,13-13Z" fill="#2a313c"/>
    <circle id="Ellipse_10" data-name="Ellipse 10" cx="8.36" cy="8.36" r="8.36" transform="translate(532.57 688.5)" fill="#5a5773"/>
    <circle id="Ellipse_11" data-name="Ellipse 11" cx="8.36" cy="8.36" r="8.36" transform="translate(636.48 688.5)" fill="#5a5773"/>
    <circle id="Ellipse_12" data-name="Ellipse 12" cx="8.36" cy="8.36" r="8.36" transform="translate(741.58 688.5)" fill="#5a5773"/>
    <rect id="Rectangle_39" data-name="Rectangle 39" width="27.47" height="4.78" transform="translate(632.89 535.63)" opacity="0.1"/>
    <path id="Path_70" data-name="Path 70" d="M683.91,595.07h80l6-11.94c3.58-20.3-9.55-21.5-9.55-21.5H607.47s-13.14,1.19-9.55,21.5l6,11.94Z" transform="translate(-36.68 -57.05)" fill="#2a313c"/>
    <path id="Path_71" data-name="Path 71" d="M683.91,595.07h80l6-11.94c3.58-20.3-9.55-21.5-9.55-21.5H607.47s-13.14,1.19-9.55,21.5l6,11.94Z" transform="translate(-36.68 -57.05)" fill="#fff" opacity="0.1"/>
    <path id="Path_72" data-name="Path 72" d="M683.91,595.07h80l6-10.24c3.58-17.4-9.55-18.43-9.55-18.43H607.47s-13.14,1-9.55,18.43l6,10.24Z" transform="translate(-36.68 -57.05)" fill="#2a313c"/>
    <path id="Path_73" data-name="Path 73" d="M845,357.47s-9.13-3.09-13.52,5a14.68,14.68,0,0,0,.19,14.13c2.89,5.22,8.83,12,20.1,11.39,9.56-.51,12.73-7.8,13.6-14.59a15,15,0,0,0-19.9-16Z" transform="translate(-36.68 -57.05)" fill="#3082ce"/>
    <path id="Path_74" data-name="Path 74" d="M833.62,377.28a14.68,14.68,0,0,1-.19-14.13c4.39-8,13.52-5,13.52-5l.47-.17a14.85,14.85,0,0,1,10.73.24,14.86,14.86,0,0,0-12.66-1.21l-.47.17s-9.13-3.09-13.52,5a14.68,14.68,0,0,0,.19,14.13A21.939,21.939,0,0,0,842,386.08a22.63,22.63,0,0,1-8.38-8.8Z" transform="translate(-36.68 -57.05)" fill="#fff" opacity="0.1"/>
    <path id="Path_75" data-name="Path 75" d="M840.3,361.34s3.38,2.66,11.61,0" transform="translate(-36.68 -57.05)" opacity="0.2"/>
    <path id="Path_76" data-name="Path 76" d="M839.58,342s5.8,15.72,5.32,19.83l4.59-.48s-7.74-13.78-5.8-19.34Z" transform="translate(-36.68 -57.05)" fill="#3082ce"/>
    <path id="Path_77" data-name="Path 77" d="M839.58,342s5.8,15.72,5.32,19.83l4.59-.48s-7.74-13.78-5.8-19.34Z" transform="translate(-36.68 -57.05)" opacity="0.2"/>
    <path id="Path_78" data-name="Path 78" d="M863.26,343.31s-9.13-4.67-13.22-.81-4.71,13.72-4.71,13.72S860.22,358.27,863.26,343.31Z" transform="translate(-36.68 -57.05)" fill="#3082ce"/>
    <path id="Path_79" data-name="Path 79" d="M863.26,343.31s-9.13-4.67-13.22-.81-4.71,13.72-4.71,13.72S860.22,358.27,863.26,343.31Z" transform="translate(-36.68 -57.05)" fill="#fff" opacity="0.1"/>
    <path id="Path_80" data-name="Path 80" d="M845.33,356.22s2.4-11.45,17.93-12.91" transform="translate(-36.68 -57.05)" fill="none" stroke="#3082ce" stroke-miterlimit="10" stroke-width="1"/>
  </g>
</svg>
